<svg width="54" height="44" fill="none" xmlns="http://www.w3.org/2000/svg"><path d="M48.27 10.838c.033.476.033.952.033 1.428 0 14.507-11.042 31.224-31.224 31.224-6.218 0-11.994-1.801-16.852-4.927.883.102 1.732.136 2.65.136 5.13 0 9.853-1.733 13.624-4.688A10.994 10.994 0 0 1 6.241 26.4c.679.102 1.358.17 2.072.17.985 0 1.97-.136 2.888-.374a10.976 10.976 0 0 1-8.8-10.77v-.137c1.46.816 3.16 1.325 4.96 1.393a10.967 10.967 0 0 1-4.892-9.14c0-2.038.543-3.907 1.495-5.537a31.195 31.195 0 0 0 22.628 11.484 12.385 12.385 0 0 1-.272-2.515C26.32 4.927 31.213 0 37.295 0c3.16 0 6.014 1.325 8.018 3.466a21.607 21.607 0 0 0 6.965-2.65 10.945 10.945 0 0 1-4.824 6.047c2.208-.238 4.349-.85 6.32-1.699a23.59 23.59 0 0 1-5.505 5.674Z" fill="#fff"/></svg>