<svg width="25" height="18" fill="none" xmlns="http://www.w3.org/2000/svg"><path d="M24.342 8.456C23.257 3.553 21.625.936 19.204.22a5.477 5.477 0 0 0-1.567-.22c-.7 0-1.311.17-1.957.35-.778.22-1.662.467-2.951.467-1.29 0-2.174-.247-2.954-.466C9.13.171 8.52 0 7.82 0a5.918 5.918 0 0 0-1.622.22c-2.408.713-4.04 3.328-5.14 8.233-1.183 5.277-.6 8.61 1.634 9.382.306.108.628.164.953.165 1.53 0 2.757-1.275 3.595-2.318.948-1.181 2.057-1.78 5.489-1.78 3.065 0 4.333.415 5.429 1.78.689.858 1.34 1.458 1.989 1.836.864.502 1.727.613 2.565.325 1.32-.45 2.076-1.64 2.25-3.54.13-1.456-.072-3.369-.62-5.847ZM10.275 8.18H8.637v1.636a.818.818 0 1 1-1.636 0V8.18H5.366a.818.818 0 0 1 0-1.636h1.636V4.908a.818.818 0 0 1 1.636 0v1.637h1.636a.818.818 0 0 1 0 1.636Zm4.294.204a1.023 1.023 0 1 1 0-2.045 1.023 1.023 0 0 1 0 2.045Zm2.25 2.25a1.023 1.023 0 1 1 0-2.046 1.023 1.023 0 0 1 0 2.046Zm0-4.5a1.022 1.022 0 1 1 0-2.044 1.022 1.022 0 0 1 0 2.045Zm2.25 2.25a1.023 1.023 0 1 1 0-2.045 1.023 1.023 0 0 1 0 2.045Z" fill="#fff"/></svg>