<svg width="54" height="44" fill="none" xmlns="http://www.w3.org/2000/svg"><path d="M48.043 10.838c.034.476.034.952.034 1.428 0 14.507-11.043 31.224-31.225 31.224-6.217 0-11.993-1.801-16.852-4.927.883.102 1.733.136 2.65.136 5.13 0 9.853-1.733 13.625-4.688A10.994 10.994 0 0 1 6.014 26.4c.68.102 1.359.17 2.072.17.986 0 1.971-.136 2.888-.374a10.976 10.976 0 0 1-8.8-10.77v-.137c1.461.816 3.16 1.325 4.96 1.393a10.967 10.967 0 0 1-4.892-9.14c0-2.038.544-3.907 1.495-5.537a31.194 31.194 0 0 0 22.629 11.484 12.392 12.392 0 0 1-.272-2.515C26.094 4.927 30.986 0 37.068 0c3.16 0 6.014 1.325 8.019 3.466a21.606 21.606 0 0 0 6.965-2.65 10.945 10.945 0 0 1-4.825 6.047c2.209-.238 4.35-.85 6.32-1.699a23.59 23.59 0 0 1-5.504 5.674Z" fill="#fff"/></svg>