<svg width="31" height="25" viewBox="0 0 31 25" fill="none" xmlns="http://www.w3.org/2000/svg">
<path d="M30.2769 3.35805C29.1881 3.83665 28.0254 4.16269 26.8013 4.31155C28.0488 3.55982 29.0085 2.37502 29.4625 0.961373C28.2924 1.6442 26.9956 2.14126 25.6152 2.41808C24.5128 1.2382 22.9417 0.5 21.1971 0.5C17.8543 0.5 15.1439 3.21041 15.1439 6.54952C15.1439 7.02935 15.1993 7.49072 15.3002 7.93241C10.2681 7.69496 5.80818 5.27859 2.8234 1.62575C2.29805 2.51405 2.004 3.54629 2.004 4.67081C2.004 6.77467 3.07439 8.62385 4.69596 9.71023C3.70309 9.67824 2.76927 9.40511 1.95479 8.95235V9.0274C1.95479 11.9617 4.03773 14.4089 6.80966 14.9662C6.30154 15.1028 5.76511 15.1766 5.21516 15.1766C4.82884 15.1766 4.45851 15.1397 4.08818 15.0708C4.86451 17.4736 7.09633 19.2256 9.75261 19.2748C7.68566 20.8976 5.06629 21.8646 2.24515 21.8646C1.76532 21.8646 1.28672 21.8363 0.805664 21.7822C3.49885 23.4973 6.67187 24.5 10.1032 24.5C21.2426 24.5 27.3266 15.2775 27.3266 7.29264C27.3266 7.0355 27.3266 6.7759 27.3082 6.51753C28.4905 5.66984 29.5227 4.59822 30.3348 3.38266L30.2769 3.35805Z" fill="#101828"/>
</svg>
