<svg width="25" height="24" viewBox="0 0 25 24" fill="none" xmlns="http://www.w3.org/2000/svg">
<path d="M21.9286 0H3.07143C1.65125 0 0.5 1.15125 0.5 2.57143V21.4286C0.5 22.8488 1.65125 24 3.07143 24H21.9286C23.3488 24 24.5 22.8488 24.5 21.4286V2.57143C24.5 1.15125 23.3488 0 21.9286 0ZM6.5 20.5714C5.07982 20.5714 3.92857 19.4202 3.92857 18C3.92857 16.5798 5.07982 15.4286 6.5 15.4286C7.92018 15.4286 9.07143 16.5798 9.07143 18C9.07143 19.4202 7.92018 20.5714 6.5 20.5714ZM14.9393 20.5714H13.0999C12.7779 20.5714 12.5079 20.3231 12.4869 20.0018C12.2076 15.7134 8.77748 12.2918 4.4982 12.013C4.17693 11.9921 3.92857 11.7221 3.92857 11.4001V9.56073C3.92857 9.21064 4.2215 8.92982 4.57111 8.94868C10.4932 9.26871 15.2317 14.0131 15.5513 19.9289C15.5702 20.2785 15.2894 20.5714 14.9393 20.5714ZM20.4586 20.5714H18.6193C18.2892 20.5714 18.0206 20.3099 18.0071 19.9801C17.7072 12.6657 11.8354 6.79291 4.51995 6.49296C4.19011 6.47941 3.92857 6.2108 3.92857 5.88075V4.04143C3.92857 3.69568 4.21454 3.41657 4.56002 3.429C13.5509 3.75177 20.7498 10.9928 21.071 19.94C21.0834 20.2855 20.8043 20.5714 20.4586 20.5714Z" fill="black"/>
</svg>
