<svg width="25" height="25" viewBox="0 0 25 25" fill="none" xmlns="http://www.w3.org/2000/svg">
<path d="M12.6592 0.5C9.39918 0.5 8.99218 0.515 7.71218 0.572C6.43418 0.632 5.56418 0.833 4.79918 1.13C4.01018 1.436 3.34018 1.847 2.67318 2.514C2.00618 3.181 1.59418 3.85 1.28918 4.64C0.99218 5.405 0.79018 6.275 0.73118 7.553C0.67118 8.833 0.65918 9.24 0.65918 12.5C0.65918 15.76 0.67418 16.167 0.73118 17.447C0.79118 18.724 0.99218 19.595 1.28918 20.36C1.59518 21.148 2.00618 21.819 2.67318 22.486C3.34018 23.152 4.00918 23.565 4.79918 23.87C5.56518 24.166 6.43518 24.369 7.71218 24.428C8.99218 24.488 9.39918 24.5 12.6592 24.5C15.9192 24.5 16.3262 24.485 17.6062 24.428C18.8832 24.368 19.7542 24.166 20.5192 23.87C21.3072 23.564 21.9782 23.152 22.6452 22.486C23.3112 21.819 23.7242 21.151 24.0292 20.36C24.3252 19.595 24.5282 18.724 24.5872 17.447C24.6472 16.167 24.6592 15.76 24.6592 12.5C24.6592 9.24 24.6442 8.833 24.5872 7.553C24.5272 6.276 24.3252 5.404 24.0292 4.64C23.7232 3.851 23.3112 3.181 22.6452 2.514C21.9782 1.847 21.3102 1.435 20.5192 1.13C19.7542 0.833 18.8832 0.631 17.6062 0.572C16.3262 0.512 15.9192 0.5 12.6592 0.5ZM12.6592 2.66C15.8622 2.66 16.2442 2.676 17.5092 2.731C18.6792 2.786 19.3142 2.98 19.7362 3.146C20.2982 3.363 20.6962 3.623 21.1182 4.042C21.5372 4.462 21.7972 4.861 22.0142 5.423C22.1782 5.845 22.3742 6.48 22.4272 7.65C22.4842 8.916 22.4972 9.296 22.4972 12.5C22.4972 15.704 22.4822 16.085 22.4232 17.35C22.3622 18.52 22.1672 19.155 22.0022 19.577C21.7782 20.139 21.5232 20.537 21.1032 20.959C20.6842 21.378 20.2792 21.638 19.7232 21.855C19.3032 22.019 18.6582 22.215 17.4882 22.268C16.2142 22.325 15.8392 22.338 12.6292 22.338C9.41818 22.338 9.04318 22.323 7.77018 22.264C6.59918 22.203 5.95418 22.008 5.53418 21.843C4.96518 21.619 4.57418 21.364 4.15518 20.944C3.73418 20.525 3.46518 20.12 3.25518 19.564C3.09018 19.144 2.89618 18.499 2.83518 17.329C2.79018 16.069 2.77418 15.68 2.77418 12.485C2.77418 9.289 2.79018 8.899 2.83518 7.624C2.89618 6.454 3.09018 5.81 3.25518 5.39C3.46518 4.82 3.73418 4.43 4.15518 4.009C4.57418 3.59 4.96518 3.32 5.53418 3.111C5.95418 2.945 6.58518 2.75 7.75518 2.69C9.03018 2.645 9.40518 2.63 12.6142 2.63L12.6592 2.66ZM12.6592 6.338C9.25418 6.338 6.49718 9.098 6.49718 12.5C6.49718 15.905 9.25718 18.662 12.6592 18.662C16.0642 18.662 18.8212 15.902 18.8212 12.5C18.8212 9.095 16.0612 6.338 12.6592 6.338ZM12.6592 16.5C10.4492 16.5 8.65918 14.71 8.65918 12.5C8.65918 10.29 10.4492 8.5 12.6592 8.5C14.8692 8.5 16.6592 10.29 16.6592 12.5C16.6592 14.71 14.8692 16.5 12.6592 16.5ZM20.5052 6.095C20.5052 6.89 19.8592 7.535 19.0652 7.535C18.2702 7.535 17.6252 6.889 17.6252 6.095C17.6252 5.301 18.2712 4.656 19.0652 4.656C19.8582 4.655 20.5052 5.301 20.5052 6.095Z" fill="#101828"/>
</svg>
