<svg width="31" height="24" viewBox="0 0 31 24" fill="none" xmlns="http://www.w3.org/2000/svg">
<path d="M30.1096 2.85805C29.0207 3.33665 27.8581 3.66269 26.6339 3.81155C27.8814 3.05982 28.8411 1.87502 29.2951 0.461373C28.1251 1.1442 26.8283 1.64126 25.4479 1.91808C24.3455 0.738197 22.7744 0 21.0298 0C17.687 0 14.9765 2.71041 14.9765 6.04952C14.9765 6.52935 15.0319 6.99072 15.1328 7.43241C10.1008 7.19496 5.64082 4.77859 2.65604 1.12575C2.13069 2.01405 1.83664 3.04629 1.83664 4.17081C1.83664 6.27467 2.90703 8.12385 4.5286 9.21023C3.53573 9.17824 2.60191 8.90511 1.78743 8.45235V8.5274C1.78743 11.4617 3.87038 13.9089 6.6423 14.4662C6.13418 14.6028 5.59776 14.6766 5.0478 14.6766C4.66148 14.6766 4.29115 14.6397 3.92082 14.5708C4.69716 16.9736 6.92897 18.7256 9.58525 18.7748C7.5183 20.3976 4.89893 21.3646 2.07779 21.3646C1.59796 21.3646 1.11936 21.3363 0.638306 21.2822C3.33149 22.9973 6.50451 24 9.93589 24C21.0753 24 27.1592 14.7775 27.1592 6.79264C27.1592 6.5355 27.1592 6.2759 27.1408 6.01753C28.3231 5.16984 29.3554 4.09822 30.1674 2.88266L30.1096 2.85805Z" fill="#101828"/>
</svg>
