<svg width="31" height="24" viewBox="0 0 31 24" fill="none" xmlns="http://www.w3.org/2000/svg">
<path d="M30.1095 2.85805C29.0206 3.33665 27.858 3.66269 26.6338 3.81155C27.8813 3.05982 28.841 1.87502 29.295 0.461373C28.1249 1.1442 26.8282 1.64126 25.4477 1.91808C24.3454 0.738197 22.7742 0 21.0296 0C17.6868 0 14.9764 2.71041 14.9764 6.04952C14.9764 6.52935 15.0318 6.99072 15.1327 7.43241C10.1006 7.19496 5.6407 4.77859 2.65592 1.12575C2.13057 2.01405 1.83652 3.04629 1.83652 4.17081C1.83652 6.27467 2.90691 8.12385 4.52848 9.21023C3.5356 9.17824 2.60179 8.90511 1.78731 8.45235V8.5274C1.78731 11.4617 3.87025 13.9089 6.64218 14.4662C6.13406 14.6028 5.59763 14.6766 5.04768 14.6766C4.66136 14.6766 4.29103 14.6397 3.9207 14.5708C4.69703 16.9736 6.92885 18.7256 9.58513 18.7748C7.51818 20.3976 4.89881 21.3646 2.07767 21.3646C1.59784 21.3646 1.11924 21.3363 0.638184 21.2822C3.33137 22.9973 6.50439 24 9.93577 24C21.0752 24 27.1591 14.7775 27.1591 6.79264C27.1591 6.5355 27.1591 6.2759 27.1407 6.01753C28.323 5.16984 29.3553 4.09822 30.1673 2.88266L30.1095 2.85805Z" fill="#101828"/>
</svg>
