<svg width="30" height="25" viewBox="0 0 30 25" fill="none" xmlns="http://www.w3.org/2000/svg">
<path d="M29.6095 3.35805C28.5206 3.83665 27.358 4.16269 26.1338 4.31155C27.3813 3.55982 28.341 2.37502 28.795 0.961373C27.6249 1.6442 26.3282 2.14126 24.9477 2.41808C23.8454 1.2382 22.2742 0.5 20.5296 0.5C17.1868 0.5 14.4764 3.21041 14.4764 6.54952C14.4764 7.02935 14.5318 7.49072 14.6327 7.93241C9.60063 7.69496 5.1407 5.27859 2.15592 1.62575C1.63057 2.51405 1.33652 3.54629 1.33652 4.67081C1.33652 6.77467 2.40691 8.62385 4.02848 9.71023C3.03561 9.67824 2.10179 9.40511 1.28731 8.95235V9.0274C1.28731 11.9617 3.37025 14.4089 6.14218 14.9662C5.63406 15.1028 5.09763 15.1766 4.54768 15.1766C4.16135 15.1766 3.79103 15.1397 3.4207 15.0708C4.19703 17.4736 6.42885 19.2256 9.08513 19.2748C7.01818 20.8976 4.39881 21.8646 1.57767 21.8646C1.09784 21.8646 0.619242 21.8363 0.138184 21.7822C2.83137 23.4973 6.00439 24.5 9.43577 24.5C20.5752 24.5 26.6591 15.2775 26.6591 7.29264C26.6591 7.0355 26.6591 6.7759 26.6407 6.51753C27.823 5.66984 28.8553 4.59822 29.6673 3.38266L29.6095 3.35805Z" fill="#101828"/>
</svg>
