<svg width="24" height="24" viewBox="0 0 24 24" fill="none" xmlns="http://www.w3.org/2000/svg">
<path d="M0 2C0 0.89543 0.895431 0 2 0H22C23.1046 0 24 0.895431 24 2V22C24 23.1046 23.1046 24 22 24H2C0.89543 24 0 23.1046 0 22V2Z" fill="black"/>
<path d="M2 16.9147L3.60779 19.6928C3.76761 20.011 4.01276 20.2784 4.31583 20.4653C4.6189 20.6521 4.96797 20.751 5.32401 20.7509H15.9953L13.7817 16.9147H2ZM20.6878 15.8902L14.4735 5.02076C14.3099 4.71248 14.0655 4.45457 13.7664 4.27473C13.4673 4.0949 13.1249 3.99992 12.7759 4H9.47062L19.0912 20.736L20.613 18.1C20.684 17.9803 21.3982 16.9895 20.6878 15.8902ZM12.2076 14.1889L7.889 6.71081L3.5704 14.1889H12.2076Z" fill="white"/>
</svg>
