<svg width="25" height="24" viewBox="0 0 25 24" fill="none" xmlns="http://www.w3.org/2000/svg">
<path d="M1.43399 22.6663C0.69763 21.9299 0.697629 20.7361 1.43399 19.9997L20.1001 1.3335C20.8365 0.597141 22.0304 0.597139 22.7667 1.3335C23.5031 2.06986 23.5031 3.26374 22.7667 4.0001L4.10058 22.6663C3.36422 23.4027 2.17035 23.4027 1.43399 22.6663Z" fill="white"/>
<path d="M22.766 22.6667C22.0297 23.4031 20.8358 23.4031 20.0994 22.6667L1.43329 4.00049C0.696934 3.26413 0.696933 2.07025 1.43329 1.33389C2.16965 0.597531 3.36352 0.597531 4.09988 1.33389L22.766 20.0001C23.5024 20.7365 23.5024 21.9303 22.766 22.6667Z" fill="white"/>
</svg>
