<svg width="25" height="24" viewBox="0 0 25 24" fill="none" xmlns="http://www.w3.org/2000/svg">
<path d="M0.5 2C0.5 0.89543 1.39543 0 2.5 0H22.5C23.6046 0 24.5 0.895431 24.5 2V22C24.5 23.1046 23.6046 24 22.5 24H2.5C1.39543 24 0.5 23.1046 0.5 22V2Z" fill="black"/>
<path d="M2.5 16.9147L4.10779 19.6928C4.26761 20.011 4.51276 20.2784 4.81583 20.4653C5.1189 20.6521 5.46797 20.751 5.82401 20.7509H16.4953L14.2817 16.9147H2.5ZM21.1878 15.8902L14.9735 5.02076C14.8099 4.71248 14.5655 4.45457 14.2664 4.27473C13.9673 4.0949 13.6249 3.99992 13.2759 4H9.97062L19.5912 20.736L21.113 18.1C21.184 17.9803 21.8982 16.9895 21.1878 15.8902ZM12.7076 14.1889L8.389 6.71081L4.0704 14.1889H12.7076Z" fill="white"/>
</svg>
