<svg width="24" height="25" viewBox="0 0 24 25" fill="none" xmlns="http://www.w3.org/2000/svg">
<path d="M11.9917 0.5C8.7317 0.5 8.3247 0.515 7.0447 0.572C5.7667 0.632 4.8967 0.833 4.1317 1.13C3.3427 1.436 2.6727 1.847 2.0057 2.514C1.3387 3.181 0.926699 3.85 0.621699 4.64C0.324699 5.405 0.122699 6.275 0.0636992 7.553C0.00369922 8.833 -0.00830078 9.24 -0.00830078 12.5C-0.00830078 15.76 0.00669922 16.167 0.0636992 17.447C0.123699 18.724 0.324699 19.595 0.621699 20.36C0.927699 21.148 1.3387 21.819 2.0057 22.486C2.6727 23.152 3.3417 23.565 4.1317 23.87C4.8977 24.166 5.7677 24.369 7.0447 24.428C8.3247 24.488 8.7317 24.5 11.9917 24.5C15.2517 24.5 15.6587 24.485 16.9387 24.428C18.2157 24.368 19.0867 24.166 19.8517 23.87C20.6397 23.564 21.3107 23.152 21.9777 22.486C22.6437 21.819 23.0567 21.151 23.3617 20.36C23.6577 19.595 23.8607 18.724 23.9197 17.447C23.9797 16.167 23.9917 15.76 23.9917 12.5C23.9917 9.24 23.9767 8.833 23.9197 7.553C23.8597 6.276 23.6577 5.404 23.3617 4.64C23.0557 3.851 22.6437 3.181 21.9777 2.514C21.3107 1.847 20.6427 1.435 19.8517 1.13C19.0867 0.833 18.2157 0.631 16.9387 0.572C15.6587 0.512 15.2517 0.5 11.9917 0.5ZM11.9917 2.66C15.1947 2.66 15.5767 2.676 16.8417 2.731C18.0117 2.786 18.6467 2.98 19.0687 3.146C19.6307 3.363 20.0287 3.623 20.4507 4.042C20.8697 4.462 21.1297 4.861 21.3467 5.423C21.5107 5.845 21.7067 6.48 21.7597 7.65C21.8167 8.916 21.8297 9.296 21.8297 12.5C21.8297 15.704 21.8147 16.085 21.7557 17.35C21.6947 18.52 21.4997 19.155 21.3347 19.577C21.1107 20.139 20.8557 20.537 20.4357 20.959C20.0167 21.378 19.6117 21.638 19.0557 21.855C18.6357 22.019 17.9907 22.215 16.8207 22.268C15.5467 22.325 15.1717 22.338 11.9617 22.338C8.7507 22.338 8.3757 22.323 7.1027 22.264C5.9317 22.203 5.2867 22.008 4.8667 21.843C4.2977 21.619 3.9067 21.364 3.4877 20.944C3.0667 20.525 2.7977 20.12 2.5877 19.564C2.4227 19.144 2.2287 18.499 2.1677 17.329C2.1227 16.069 2.1067 15.68 2.1067 12.485C2.1067 9.289 2.1227 8.899 2.1677 7.624C2.2287 6.454 2.4227 5.81 2.5877 5.39C2.7977 4.82 3.0667 4.43 3.4877 4.009C3.9067 3.59 4.2977 3.32 4.8667 3.111C5.2867 2.945 5.9177 2.75 7.0877 2.69C8.3627 2.645 8.7377 2.63 11.9467 2.63L11.9917 2.66ZM11.9917 6.338C8.5867 6.338 5.8297 9.098 5.8297 12.5C5.8297 15.905 8.5897 18.662 11.9917 18.662C15.3967 18.662 18.1537 15.902 18.1537 12.5C18.1537 9.095 15.3937 6.338 11.9917 6.338ZM11.9917 16.5C9.7817 16.5 7.9917 14.71 7.9917 12.5C7.9917 10.29 9.7817 8.5 11.9917 8.5C14.2017 8.5 15.9917 10.29 15.9917 12.5C15.9917 14.71 14.2017 16.5 11.9917 16.5ZM19.8377 6.095C19.8377 6.89 19.1917 7.535 18.3977 7.535C17.6027 7.535 16.9577 6.889 16.9577 6.095C16.9577 5.301 17.6037 4.656 18.3977 4.656C19.1907 4.655 19.8377 5.301 19.8377 6.095Z" fill="#101828"/>
</svg>
