<svg width="25" height="24" viewBox="0 0 25 24" fill="none" xmlns="http://www.w3.org/2000/svg">
<path d="M21.9286 0H3.07143C1.65179 0 0.5 1.15179 0.5 2.57143V21.4286C0.5 22.8482 1.65179 24 3.07143 24H21.9286C23.3482 24 24.5 22.8482 24.5 21.4286V2.57143C24.5 1.15179 23.3482 0 21.9286 0ZM19.3089 8.50714C19.3196 8.65714 19.3196 8.8125 19.3196 8.9625C19.3196 13.6071 15.7839 18.9589 9.32321 18.9589C7.33036 18.9589 5.48214 18.3804 3.92857 17.3839C4.2125 17.4161 4.48571 17.4268 4.775 17.4268C6.41964 17.4268 7.93036 16.8696 9.13571 15.9268C7.59286 15.8946 6.29643 14.8821 5.85179 13.4893C6.39286 13.5696 6.88036 13.5696 7.4375 13.425C5.83036 13.0982 4.625 11.6839 4.625 9.975V9.93214C5.09107 10.1946 5.6375 10.3554 6.21071 10.3768C5.7288 10.0562 5.33374 9.62136 5.06079 9.11098C4.78784 8.60059 4.64548 8.03057 4.64643 7.45179C4.64643 6.79821 4.81786 6.19821 5.12321 5.67857C6.85357 7.81071 9.45179 9.20357 12.3661 9.35357C11.8679 6.96964 13.6518 5.03571 15.7946 5.03571C16.8071 5.03571 17.7179 5.45893 18.3607 6.14464C19.1536 5.99464 19.9143 5.7 20.5893 5.29821C20.3268 6.1125 19.775 6.79821 19.0464 7.23214C19.7536 7.15714 20.4393 6.95893 21.0714 6.68571C20.5946 7.3875 19.9946 8.00893 19.3089 8.50714Z" fill="black"/>
</svg>
