<svg width="23" height="24" viewBox="0 0 23 24" fill="none" xmlns="http://www.w3.org/2000/svg">
<path d="M19.717 0C21.123 0 22.257 1.137 22.324 2.475V24L19.647 21.727L18.177 20.389L16.573 18.991L17.243 21.196H3.20504C1.80304 21.196 0.665039 20.131 0.665039 18.72V2.48C0.665039 1.142 1.80504 0.003 3.21004 0.003H19.71L19.717 0ZM13.599 5.683H13.569L13.367 5.883C15.44 6.483 16.443 7.42 16.443 7.42C15.107 6.752 13.903 6.418 12.699 6.283C11.829 6.148 10.959 6.219 10.224 6.283H10.024C9.55404 6.283 8.55404 6.483 7.21404 7.018C6.74704 7.221 6.47904 7.354 6.47904 7.354C6.47904 7.354 7.48104 6.352 9.68904 5.817L9.55404 5.682C9.55404 5.682 7.88204 5.618 6.07704 6.952C6.07704 6.952 4.27204 10.096 4.27204 13.972C4.27204 13.972 5.27204 15.712 8.01504 15.778C8.01504 15.778 8.41504 15.245 8.82004 14.776C7.28004 14.308 6.68004 13.372 6.68004 13.372C6.68004 13.372 6.81404 13.438 7.01504 13.572H7.07504C7.10504 13.572 7.11904 13.587 7.13504 13.602V13.608C7.15104 13.624 7.16504 13.638 7.19504 13.638C7.52504 13.774 7.85504 13.908 8.12504 14.038C8.59104 14.24 9.19004 14.441 9.92504 14.574C10.855 14.709 11.921 14.774 13.135 14.574C13.735 14.439 14.335 14.307 14.935 14.039C15.325 13.839 15.805 13.639 16.332 13.302C16.332 13.302 15.732 14.238 14.127 14.706C14.457 15.172 14.922 15.706 14.922 15.706C17.666 15.646 18.732 13.906 18.792 13.98C18.792 10.11 16.977 6.96 16.977 6.96C15.342 5.746 13.812 5.7 13.542 5.7L13.598 5.68L13.599 5.683ZM13.767 10.096C14.47 10.096 15.037 10.696 15.037 11.431C15.037 12.171 14.467 12.771 13.767 12.771C13.067 12.771 12.497 12.171 12.497 11.437C12.499 10.697 13.07 10.099 13.767 10.099V10.096ZM9.22404 10.096C9.92404 10.096 10.49 10.696 10.49 11.431C10.49 12.171 9.92004 12.771 9.22004 12.771C8.52004 12.771 7.95004 12.171 7.95004 11.437C7.95004 10.697 8.52004 10.099 9.22004 10.099L9.22404 10.096Z" fill="white"/>
</svg>
