<svg width="22" height="25" viewBox="0 0 22 25" fill="none" xmlns="http://www.w3.org/2000/svg">
<path d="M19.052 0.5C20.458 0.5 21.592 1.637 21.659 2.975V24.5L18.982 22.227L17.512 20.889L15.908 19.491L16.578 21.696H2.54C1.138 21.696 0 20.631 0 19.22V2.98C0 1.642 1.14 0.503 2.545 0.503H19.045L19.052 0.5ZM12.934 6.183H12.904L12.702 6.383C14.775 6.983 15.778 7.92 15.778 7.92C14.442 7.252 13.238 6.918 12.034 6.783C11.164 6.648 10.294 6.719 9.559 6.783H9.359C8.889 6.783 7.889 6.983 6.549 7.518C6.082 7.721 5.814 7.854 5.814 7.854C5.814 7.854 6.816 6.852 9.024 6.317L8.889 6.182C8.889 6.182 7.217 6.118 5.412 7.452C5.412 7.452 3.607 10.596 3.607 14.472C3.607 14.472 4.607 16.212 7.35 16.278C7.35 16.278 7.75 15.745 8.155 15.276C6.615 14.808 6.015 13.872 6.015 13.872C6.015 13.872 6.149 13.938 6.35 14.072H6.41C6.44 14.072 6.454 14.087 6.47 14.102V14.108C6.486 14.124 6.5 14.138 6.53 14.138C6.86 14.274 7.19 14.408 7.46 14.538C7.926 14.74 8.525 14.941 9.26 15.074C10.19 15.209 11.256 15.274 12.47 15.074C13.07 14.939 13.67 14.807 14.27 14.539C14.66 14.339 15.14 14.139 15.667 13.802C15.667 13.802 15.067 14.738 13.462 15.206C13.792 15.672 14.257 16.206 14.257 16.206C17.001 16.146 18.067 14.406 18.127 14.48C18.127 10.61 16.312 7.46 16.312 7.46C14.677 6.246 13.147 6.2 12.877 6.2L12.933 6.18L12.934 6.183ZM13.102 10.596C13.805 10.596 14.372 11.196 14.372 11.931C14.372 12.671 13.802 13.271 13.102 13.271C12.402 13.271 11.832 12.671 11.832 11.937C11.834 11.197 12.405 10.599 13.102 10.599V10.596ZM8.559 10.596C9.259 10.596 9.825 11.196 9.825 11.931C9.825 12.671 9.255 13.271 8.555 13.271C7.855 13.271 7.285 12.671 7.285 11.937C7.285 11.197 7.855 10.599 8.555 10.599L8.559 10.596Z" fill="#101828"/>
</svg>
